<?xml version="1.0" standalone="no"?>
<!DOCTYPE svg PUBLIC "-//W3C//DTD SVG 20010904//EN"
 "http://www.w3.org/TR/2001/REC-SVG-20010904/DTD/svg10.dtd">
<svg version="1.0" xmlns="http://www.w3.org/2000/svg"
 width="2883.000000pt" height="3275.000000pt" viewBox="0 0 2883.000000 3275.000000"
 preserveAspectRatio="xMidYMid meet">

<g transform="translate(0.000000,3275.000000) scale(0.100000,-0.100000)"
fill="#000000" stroke="none">
<path d="M14660 29284 c-8 -2 -131 -10 -273 -19 -142 -9 -313 -22 -380 -31
-149 -18 -805 -126 -971 -160 -254 -51 -995 -283 -1201 -376 -60 -28 -175 -78
-255 -113 -341 -147 -738 -364 -1070 -586 -571 -382 -1017 -776 -1497 -1324
-262 -299 -579 -750 -801 -1141 -214 -374 -433 -845 -537 -1154 -29 -85 -71
-200 -93 -255 -59 -149 -85 -237 -177 -605 -113 -454 -188 -833 -220 -1110
-56 -493 -65 -586 -77 -875 -16 -373 -16 -455 0 -785 15 -322 24 -421 67 -801
40 -346 99 -643 231 -1169 104 -410 122 -472 184 -614 26 -61 71 -176 98 -256
156 -451 487 -1094 800 -1554 357 -525 703 -927 1157 -1345 208 -191 262 -236
515 -428 350 -264 528 -379 935 -605 321 -178 730 -360 1080 -481 88 -31 201
-71 250 -90 117 -44 296 -92 630 -168 282 -63 891 -170 1080 -188 229 -23 656
-41 948 -41 258 0 353 -5 633 -30 181 -17 397 -42 479 -55 392 -65 1097 -247
1293 -334 80 -35 184 -81 412 -179 96 -42 338 -178 486 -274 54 -35 169 -120
254 -188 293 -235 487 -443 681 -733 168 -251 249 -417 354 -728 100 -296 118
-388 155 -781 25 -267 25 -458 0 -718 -25 -266 -36 -341 -67 -480 -52 -237
-222 -698 -323 -877 -121 -215 -330 -485 -524 -678 -188 -187 -482 -412 -720
-549 -186 -108 -475 -245 -686 -325 -67 -26 -584 -182 -695 -210 -128 -32
-459 -98 -605 -120 -74 -11 -288 -34 -475 -51 -333 -31 -349 -31 -790 -27
-456 4 -610 14 -1005 63 -286 35 -675 116 -885 184 -82 26 -217 69 -300 95
-281 88 -694 282 -967 456 -445 281 -858 696 -1094 1096 -93 157 -231 463
-289 637 -59 180 -84 285 -114 481 -48 309 -54 411 -56 875 -1 423 -2 447 -22
490 -23 53 -78 104 -130 122 -51 17 -2733 25 -2832 8 -78 -13 -153 -50 -179
-87 -46 -66 -47 -82 -45 -563 1 -384 5 -487 23 -655 68 -651 110 -885 230
-1305 101 -355 214 -678 300 -860 43 -91 92 -199 110 -240 95 -229 401 -727
646 -1055 348 -463 966 -1057 1414 -1358 91 -61 208 -141 260 -178 153 -109
554 -332 850 -475 283 -136 493 -223 780 -324 91 -32 210 -75 265 -95 55 -20
217 -66 360 -101 143 -35 319 -79 390 -98 126 -33 510 -110 705 -140 157 -25
729 -84 983 -101 190 -13 345 -16 765 -12 290 2 606 10 702 16 228 15 812 76
965 101 245 39 655 122 820 165 94 25 254 65 357 90 103 25 243 66 310 91 68
25 206 74 308 109 314 108 453 166 802 339 358 178 611 323 896 516 721 485
1376 1176 1827 1926 111 184 277 502 323 619 22 55 67 162 101 238 115 258
175 457 320 1062 95 394 123 612 147 1170 15 328 16 420 5 675 -21 504 -62
855 -131 1115 -22 83 -65 250 -95 373 -58 234 -154 522 -231 694 -25 57 -75
171 -111 253 -102 238 -321 620 -478 838 -191 265 -216 297 -363 473 -183 220
-523 557 -752 745 -194 160 -455 353 -656 485 -114 75 -149 103 -169 138 -53
90 -25 168 99 280 44 41 156 142 248 225 159 145 450 440 611 621 199 224 473
586 654 865 170 262 413 682 494 855 98 208 270 604 302 695 19 55 58 163 87
240 105 282 234 771 289 1100 12 66 34 183 50 260 77 362 93 584 93 1290 0
752 -10 888 -103 1450 -129 785 -176 974 -389 1585 -186 533 -482 1114 -815
1600 -101 146 -119 184 -119 250 -1 70 20 105 82 133 46 22 54 22 647 22 l600
0 46 23 c50 24 88 72 110 137 12 33 14 277 14 1375 l0 1335 -30 60 c-32 64
-71 97 -134 115 -33 9 -8141 13 -8181 4z m793 -3179 c275 -29 751 -105 914
-145 542 -132 1173 -424 1573 -726 319 -241 651 -571 868 -861 193 -260 399
-613 500 -858 27 -66 70 -165 94 -220 133 -296 301 -1003 358 -1507 20 -171
21 -228 17 -670 -4 -541 -8 -580 -88 -943 -125 -567 -196 -768 -459 -1310
-221 -454 -645 -1016 -1046 -1389 -203 -188 -531 -441 -745 -574 -255 -158
-637 -350 -863 -434 -114 -42 -541 -162 -682 -192 -313 -65 -740 -111 -969
-103 -287 11 -677 57 -950 112 -163 34 -628 167 -729 209 -528 221 -785 370
-1185 690 -179 143 -439 396 -576 561 -287 344 -526 722 -711 1125 -116 254
-133 298 -214 556 -93 297 -104 339 -165 627 -54 260 -71 394 -87 700 -15 306
-16 464 -1 807 18 402 35 547 104 900 40 206 55 262 148 572 92 306 109 350
272 713 138 309 425 732 705 1040 225 247 570 517 924 722 200 116 225 129
431 214 504 207 873 295 1594 378 241 28 226 27 495 29 199 1 287 -3 473 -23z"/>
<path d="M22639 4940 c-412 -70 -734 -359 -831 -746 -33 -131 -31 -313 5 -447
101 -380 423 -662 830 -727 107 -18 319 -8 418 19 565 152 884 703 713 1227
-134 409 -533 688 -978 683 -61 -1 -132 -5 -157 -9z m286 -51 c399 -47 729
-335 821 -716 23 -93 23 -295 1 -386 -74 -302 -299 -552 -595 -663 -468 -175
-1005 28 -1220 461 -66 131 -83 202 -89 357 -5 119 -3 151 16 232 40 170 128
323 262 452 85 81 136 118 234 166 179 89 367 121 570 97z"/>
<path d="M22230 4005 l0 -575 130 0 130 0 2 188 3 187 125 3 125 2 202 -190
201 -190 157 0 c121 0 156 3 153 13 -3 6 -92 93 -198 193 -107 99 -195 185
-197 191 -2 6 17 16 43 22 119 30 215 106 260 204 23 51 28 76 28 143 0 72 -4
89 -32 146 -38 77 -97 135 -181 178 -112 56 -148 60 -568 60 l-383 0 0 -575z
m754 361 c66 -20 111 -58 131 -111 33 -86 -1 -171 -88 -218 -40 -21 -52 -22
-287 -22 l-245 0 -3 170 c-1 93 0 175 2 182 8 19 425 18 490 -1z"/>
</g>
</svg>
